<svg xmlns="http://www.w3.org/2000/svg" width="24" height="25" viewBox="0 0 24 25" fill="none">
    <path d="M20.4367 11.6943H6.72337L14.9312 4.56934C15.0624 4.45449 14.9827 4.24121 14.8093 4.24121H12.7351C12.6437 4.24121 12.557 4.27402 12.489 4.33262L3.63196 12.0178C3.55084 12.0881 3.48579 12.175 3.4412 12.2727C3.39661 12.3703 3.37354 12.4764 3.37354 12.5838C3.37354 12.6911 3.39661 12.7972 3.4412 12.8949C3.48579 12.9926 3.55084 13.0795 3.63196 13.1498L12.5406 20.8818C12.5757 20.9123 12.6179 20.9287 12.6624 20.9287H14.807C14.9804 20.9287 15.0601 20.7131 14.9288 20.6006L6.72337 13.4756H20.4367C20.5398 13.4756 20.6242 13.3912 20.6242 13.2881V11.8818C20.6242 11.7787 20.5398 11.6943 20.4367 11.6943Z" fill="#141527"/>
</svg>