<svg xmlns="http://www.w3.org/2000/svg" width="24" height="25" viewBox="0 0 24 25" fill="none">
    <path d="M22.4438 12.4782L14.1375 4.29381C14.1203 4.27652 14.0998 4.2628 14.0773 4.25344C14.0548 4.24408 14.0306 4.23926 14.0063 4.23926C13.9819 4.23926 13.9577 4.24408 13.9352 4.25344C13.9127 4.2628 13.8922 4.27652 13.875 4.29381L8.28047 9.80631C8.24526 9.84124 8.22526 9.88866 8.22483 9.93825C8.22439 9.98785 8.24354 10.0356 8.27813 10.0712L8.28047 10.0735L9.21797 10.9969L6.47109 13.6993C6.43589 13.7342 6.41589 13.7816 6.41545 13.8312C6.41501 13.8808 6.43417 13.9286 6.46875 13.9641L6.47109 13.9665L7.39688 14.8782L2.96484 19.261H1.68984C1.58672 19.261 1.5 19.3454 1.5 19.4485V20.7423C1.5 20.8454 1.58438 20.9298 1.6875 20.9298H9.77109C9.82031 20.9298 9.86719 20.911 9.90234 20.8758L11.6859 19.104L12.6328 20.0368C12.65 20.0541 12.6705 20.0678 12.693 20.0772C12.7155 20.0865 12.7397 20.0913 12.7641 20.0913C12.7885 20.0913 12.8126 20.0865 12.8351 20.0772C12.8577 20.0678 12.8781 20.0541 12.8953 20.0368L15.6398 17.3274L16.5797 18.2532C16.5969 18.2705 16.6173 18.2842 16.6399 18.2936C16.6624 18.3029 16.6865 18.3077 16.7109 18.3077C16.7353 18.3077 16.7595 18.3029 16.782 18.2936C16.8045 18.2842 16.825 18.2705 16.8422 18.2532L22.4367 12.7407C22.5164 12.6704 22.5164 12.5532 22.4438 12.4782ZM9.13594 19.2469H5.38125L8.53125 16.1298L10.4086 17.979L9.13594 19.2469ZM12.7641 17.7915L8.74688 13.8329L10.3547 12.2485L14.3719 16.2071L12.7641 17.7915ZM16.7133 16.0079L10.5539 9.93991L14.0063 6.53913L20.1656 12.6094L16.7133 16.0079Z" fill="current"/>
</svg>