<svg xmlns="http://www.w3.org/2000/svg" width="20" height="21" viewBox="0 0 20 21" fill="none">
    <path d="M12.3438 17.9292H7.65625C7.57031 17.9292 7.5 17.9995 7.5 18.0854V18.7104C7.5 19.0562 7.7793 19.3354 8.125 19.3354H11.875C12.2207 19.3354 12.5 19.0562 12.5 18.7104V18.0854C12.5 17.9995 12.4297 17.9292 12.3438 17.9292ZM10 1.83545C6.46289 1.83545 3.59375 4.70459 3.59375 8.2417C3.59375 10.6128 4.88281 12.6831 6.79688 13.7905V16.0542C6.79688 16.3999 7.07617 16.6792 7.42188 16.6792H12.5781C12.9238 16.6792 13.2031 16.3999 13.2031 16.0542V13.7905C15.1172 12.6831 16.4062 10.6128 16.4062 8.2417C16.4062 4.70459 13.5371 1.83545 10 1.83545ZM12.498 12.5737L11.7969 12.98V15.2729H8.20312V12.98L7.50195 12.5737C5.96484 11.6851 5 10.0483 5 8.2417C5 5.47998 7.23828 3.2417 10 3.2417C12.7617 3.2417 15 5.47998 15 8.2417C15 10.0483 14.0352 11.6851 12.498 12.5737Z" fill="current"/>
</svg>