<svg xmlns="http://www.w3.org/2000/svg" width="20" height="21" viewBox="0 0 20 21" fill="none">
    <path d="M17.7364 7.48096L12.7774 6.76026L10.5606 2.26612C10.5001 2.14307 10.4005 2.04346 10.2774 1.98292C9.96882 1.83057 9.59382 1.95753 9.43952 2.26612L7.22272 6.76026L2.26374 7.48096C2.12702 7.5005 2.00202 7.56495 1.90632 7.6626C1.79062 7.78152 1.72686 7.94151 1.72906 8.10741C1.73126 8.27331 1.79923 8.43156 1.91804 8.54737L5.50593 12.0454L4.65827 16.9849C4.63839 17.0998 4.65111 17.2179 4.69497 17.326C4.73884 17.434 4.8121 17.5276 4.90645 17.5962C5.0008 17.6647 5.11246 17.7054 5.22878 17.7137C5.34509 17.722 5.4614 17.6975 5.56452 17.6431L10.0001 15.311L14.4356 17.6431C14.5567 17.7075 14.6973 17.729 14.8321 17.7056C15.1719 17.647 15.4005 17.3247 15.3419 16.9849L14.4942 12.0454L18.0821 8.54737C18.1798 8.45167 18.2442 8.32667 18.2637 8.18995C18.3165 7.84815 18.0782 7.53175 17.7364 7.48096ZM12.9844 11.5532L13.6895 15.6607L10.0001 13.7232L6.31061 15.6626L7.01569 11.5552L4.03132 8.64503L8.15632 8.04542L10.0001 4.30909L11.8438 8.04542L15.9688 8.64503L12.9844 11.5532Z" fill="current"/>
</svg>