<svg xmlns="http://www.w3.org/2000/svg" width="18" height="16" viewBox="0 0 18 16" fill="none">
    <path fill-rule="evenodd" clip-rule="evenodd" d="M8.58265 10.6665C8.28663 9.51635 7.24256 8.6665 6 8.6665C4.75744 8.6665 3.71337 9.51635 3.41735 10.6665H2V11.9998H3.41735C3.71337 13.15 4.75744 13.9998 6 13.9998C7.24256 13.9998 8.28663 13.15 8.58265 11.9998H14V10.6665H8.58265ZM7.33333 11.3332C7.33333 12.0696 6.73638 12.6665 6 12.6665C5.26362 12.6665 4.66667 12.0696 4.66667 11.3332C4.66667 10.5968 5.26362 9.99984 6 9.99984C6.73638 9.99984 7.33333 10.5968 7.33333 11.3332Z" fill="current"/>
    <path fill-rule="evenodd" clip-rule="evenodd" d="M12.5827 4C12.2866 2.84985 11.2426 2 10 2C8.75744 2 7.71337 2.84985 7.41735 4H2V5.33333H7.41735C7.71337 6.48349 8.75744 7.33333 10 7.33333C11.2426 7.33333 12.2866 6.48349 12.5827 5.33333H14V4H12.5827ZM11.3333 4.66667C11.3333 5.40305 10.7364 6 10 6C9.26362 6 8.66667 5.40305 8.66667 4.66667C8.66667 3.93029 9.26362 3.33333 10 3.33333C10.7364 3.33333 11.3333 3.93029 11.3333 4.66667Z" fill="current"/>
</svg>