<svg xmlns="http://www.w3.org/2000/svg" width="20" height="20" viewBox="0 0 20 20" fill="none">
    <path d="M4.2172 17H6.12424C6.21847 17 6.30373 16.9394 6.33289 16.8474L7.53769 13.1231H12.4556L13.6492 16.8474C13.6784 16.9372 13.7614 17 13.8578 17H15.8569C15.8815 17 15.9062 16.9955 15.9287 16.9888C15.9558 16.9795 15.9809 16.9648 16.0024 16.9458C16.0239 16.9267 16.0414 16.9036 16.0539 16.8777C16.0664 16.8519 16.0737 16.8238 16.0753 16.7951C16.0769 16.7664 16.0728 16.7377 16.0633 16.7106L11.3944 3.14808C11.3793 3.10525 11.3514 3.06809 11.3145 3.04162C11.2775 3.01514 11.2334 3.00062 11.188 3H8.89281C8.79858 3 8.71557 3.05833 8.6864 3.14808L4.01079 16.7106C4.00182 16.733 3.99957 16.7577 3.99957 16.7824C3.99733 16.9013 4.09605 17 4.2172 17ZM9.95851 5.42083H10.0505L11.9306 11.3394H8.0582L9.95851 5.42083Z" fill="#141527"/>
</svg>