<svg xmlns="http://www.w3.org/2000/svg" width="20" height="21" viewBox="0 0 20 21" fill="none">
    <path d="M18.4868 10.4498L10.9399 2.90679L10.434 2.40093C10.3188 2.28643 10.1629 2.22217 10.0004 2.22217C9.83798 2.22217 9.68211 2.28643 9.56685 2.40093L1.51412 10.4498C1.39602 10.5674 1.30268 10.7075 1.23961 10.8618C1.17655 11.0161 1.14503 11.1815 1.14693 11.3482C1.15474 12.0357 1.72701 12.5845 2.41451 12.5845H3.24459V18.9458H16.7563V12.5845H17.604C17.9379 12.5845 18.2524 12.4537 18.4887 12.2173C18.6051 12.1013 18.6973 11.9634 18.76 11.8115C18.8227 11.6597 18.8546 11.4969 18.854 11.3326C18.854 11.0005 18.7231 10.6861 18.4868 10.4498ZM11.0942 17.5396H8.9067V13.5552H11.0942V17.5396ZM15.3501 11.1783V17.5396H12.3442V13.0865C12.3442 12.6548 11.9946 12.3052 11.5629 12.3052H8.43795C8.00631 12.3052 7.6567 12.6548 7.6567 13.0865V17.5396H4.65084V11.1783H2.77584L10.0024 3.95757L10.4536 4.40874L17.227 11.1783H15.3501Z" fill="current"/>
</svg>