<svg xmlns="http://www.w3.org/2000/svg" width="24" height="25" viewBox="0 0 24 25" fill="none">
    <path d="M21.1875 4.33496H2.8125C2.70937 4.33496 2.625 4.41934 2.625 4.52246V6.02246C2.625 6.12559 2.70937 6.20996 2.8125 6.20996H21.1875C21.2906 6.20996 21.375 6.12559 21.375 6.02246V4.52246C21.375 4.41934 21.2906 4.33496 21.1875 4.33496ZM21.1875 18.96H2.8125C2.70937 18.96 2.625 19.0443 2.625 19.1475V20.6475C2.625 20.7506 2.70937 20.835 2.8125 20.835H21.1875C21.2906 20.835 21.375 20.7506 21.375 20.6475V19.1475C21.375 19.0443 21.2906 18.96 21.1875 18.96ZM21.1875 11.6475H2.8125C2.70937 11.6475 2.625 11.7318 2.625 11.835V13.335C2.625 13.4381 2.70937 13.5225 2.8125 13.5225H21.1875C21.2906 13.5225 21.375 13.4381 21.375 13.335V11.835C21.375 11.7318 21.2906 11.6475 21.1875 11.6475Z" fill="#141527"/>
</svg>