<svg xmlns="http://www.w3.org/2000/svg" width="14" height="14" viewBox="0 0 14 14" fill="none">
    <path fill-rule="evenodd" clip-rule="evenodd" d="M10.2776 9.32918C9.53304 10.3288 8.34158 10.9764 7 10.9764C4.74484 10.9764 2.91667 9.14818 2.91667 6.89302C2.91667 5.5058 3.60894 4.27928 4.66681 3.54123C4.68846 6.66956 7.17262 9.21278 10.2776 9.32918ZM10.8862 8.15092C10.7589 8.16135 10.6301 8.16667 10.5 8.16667C7.92267 8.16667 5.83333 6.07733 5.83333 3.5C5.83333 3.32071 5.84345 3.14377 5.86313 2.96973C5.91328 2.52634 6.02556 2.10178 6.19106 1.70496C5.71441 1.77867 5.25894 1.91651 4.83373 2.10937C3.015 2.93428 1.75 4.76592 1.75 6.89302C1.75 9.79251 4.10051 12.143 7 12.143C9.06919 12.143 10.8588 10.946 11.7141 9.20658C11.9203 8.78706 12.0723 8.33598 12.1607 7.86255C11.7594 8.01536 11.3317 8.11442 10.8862 8.15092Z" fill="#141527"/>
</svg>