<svg width="25" height="25" viewBox="0 0 25 25" fill="none" xmlns="http://www.w3.org/2000/svg">
<g id="Icon / PushpinOutlined">
<path id="Vector" d="M20.8017 9.98257L15.0267 4.20757C14.8744 4.05522 14.6751 3.98022 14.4759 3.98022C14.2767 3.98022 14.0775 4.05522 13.9251 4.20757L10.1494 7.98569C9.86341 7.95288 9.57513 7.93882 9.28685 7.93882C7.57123 7.93882 5.8556 8.50366 4.44701 9.63335C4.36171 9.70184 4.2918 9.78753 4.24182 9.88484C4.19185 9.98216 4.16293 10.0889 4.15696 10.1981C4.15099 10.3074 4.1681 10.4166 4.20717 10.5188C4.24624 10.621 4.3064 10.7138 4.38373 10.7912L8.64232 15.0498L3.59388 20.0935C3.53202 20.155 3.49384 20.2363 3.48607 20.3232L3.40638 21.1951C3.38529 21.4154 3.56107 21.6029 3.77904 21.6029C3.79076 21.6029 3.80248 21.6029 3.8142 21.6005L4.68607 21.5209C4.77279 21.5138 4.85482 21.474 4.91576 21.413L9.9642 16.3646L14.2228 20.6232C14.3751 20.7755 14.5744 20.8505 14.7736 20.8505C15.0009 20.8505 15.2259 20.7521 15.3806 20.5599C16.7001 18.9123 17.2486 16.8498 17.0259 14.8552L20.8017 11.0794C21.104 10.7794 21.104 10.2873 20.8017 9.98257ZM15.8306 13.6669L15.2564 14.2412L15.3454 15.0474C15.4851 16.2944 15.2363 17.5542 14.6329 18.6544L6.35716 10.374C6.65951 10.2076 6.97357 10.0669 7.30169 9.95444C7.9392 9.73413 8.60716 9.62397 9.28685 9.62397C9.51185 9.62397 9.7392 9.63569 9.9642 9.66147L10.7704 9.75054L11.3447 9.17632L14.4783 6.04272L18.9665 10.531L15.8306 13.6669Z" fill="#141527"/>
</g>
</svg>
