<svg xmlns="http://www.w3.org/2000/svg" width="20" height="21" viewBox="0 0 20 21" fill="none">
    <path d="M9.41406 3.5542H10.5859C10.6901 3.5542 10.7422 3.60628 10.7422 3.71045V17.4605C10.7422 17.5646 10.6901 17.6167 10.5859 17.6167H9.41406C9.3099 17.6167 9.25781 17.5646 9.25781 17.4605V3.71045C9.25781 3.60628 9.3099 3.5542 9.41406 3.5542Z" fill="current"/>
    <path d="M3.4375 9.84326H16.5625C16.6667 9.84326 16.7188 9.89535 16.7188 9.99951V11.1714C16.7188 11.2756 16.6667 11.3276 16.5625 11.3276H3.4375C3.33333 11.3276 3.28125 11.2756 3.28125 11.1714V9.99951C3.28125 9.89535 3.33333 9.84326 3.4375 9.84326Z" fill="current"/>
    <path d="M9.41406 3.5542H10.5859C10.6901 3.5542 10.7422 3.60628 10.7422 3.71045V17.4605C10.7422 17.5646 10.6901 17.6167 10.5859 17.6167H9.41406C9.3099 17.6167 9.25781 17.5646 9.25781 17.4605V3.71045C9.25781 3.60628 9.3099 3.5542 9.41406 3.5542Z" stroke="current" stroke-width="0.666667"/>
    <path d="M3.4375 9.84326H16.5625C16.6667 9.84326 16.7188 9.89535 16.7188 9.99951V11.1714C16.7188 11.2756 16.6667 11.3276 16.5625 11.3276H3.4375C3.33333 11.3276 3.28125 11.2756 3.28125 11.1714V9.99951C3.28125 9.89535 3.33333 9.84326 3.4375 9.84326Z" stroke="current" stroke-width="0.666667"/>
</svg>