<svg xmlns="http://www.w3.org/2000/svg" width="20" height="21" viewBox="0 0 20 21" fill="none">
    <path d="M10 1.83545C5.16797 1.83545 1.25 5.75342 1.25 10.5854C1.25 15.4175 5.16797 19.3354 10 19.3354C14.832 19.3354 18.75 15.4175 18.75 10.5854C18.75 5.75342 14.832 1.83545 10 1.83545ZM10 17.8511C5.98828 17.8511 2.73438 14.5972 2.73438 10.5854C2.73438 6.57373 5.98828 3.31982 10 3.31982C14.0117 3.31982 17.2656 6.57373 17.2656 10.5854C17.2656 14.5972 14.0117 17.8511 10 17.8511Z" fill="current"/>
    <path d="M13.4121 13.0581L10.6269 11.0444V6.21045C10.6269 6.12451 10.5566 6.0542 10.4707 6.0542H9.53125C9.44531 6.0542 9.375 6.12451 9.375 6.21045V11.5893C9.375 11.6401 9.39844 11.687 9.43945 11.7163L12.6699 14.0718C12.7402 14.1225 12.8379 14.1069 12.8887 14.0385L13.4473 13.2768C13.498 13.2046 13.4824 13.1069 13.4121 13.0581Z" fill="current"/>
</svg>