<svg xmlns="http://www.w3.org/2000/svg" width="20" height="20" viewBox="0 0 20 20" fill="none">
    <path d="M17.7556 4.08789L16.654 4.94922C15.152 3.0293 12.8161 1.79688 10.1931 1.79688C5.66376 1.79688 1.99775 5.45898 1.99189 9.99023C1.98603 14.5254 5.65986 18.2031 10.1931 18.2031C13.7341 18.2031 16.7517 15.957 17.9001 12.8105C17.9294 12.7285 17.8864 12.6367 17.8044 12.6094L16.697 12.2285C16.6584 12.2153 16.6161 12.2177 16.5792 12.2352C16.5424 12.2527 16.5138 12.284 16.4997 12.3223C16.4645 12.4199 16.4255 12.5176 16.3845 12.6133C16.0466 13.4141 15.5622 14.1328 14.945 14.75C14.3328 15.3634 13.608 15.8528 12.8102 16.1914C11.9841 16.541 11.1032 16.7188 10.197 16.7188C9.28876 16.7188 8.40986 16.541 7.58369 16.1914C6.7852 15.8542 6.06009 15.3646 5.44892 14.75C4.83505 14.1379 4.34615 13.4121 4.00947 12.6133C3.65986 11.7852 3.48212 10.9062 3.48212 9.99805C3.48212 9.08984 3.65986 8.21094 4.00947 7.38281C4.34736 6.58203 4.83173 5.86328 5.44892 5.24609C6.06611 4.62891 6.78486 4.14453 7.58369 3.80469C8.40986 3.45508 9.29072 3.27734 10.197 3.27734C11.1052 3.27734 11.9841 3.45508 12.8102 3.80469C13.6087 4.14188 14.3338 4.63148 14.945 5.24609C15.1384 5.43945 15.32 5.64453 15.488 5.85938L14.3122 6.77734C14.2889 6.79534 14.2712 6.81954 14.2611 6.84715C14.251 6.87477 14.2489 6.90468 14.255 6.93345C14.2611 6.96222 14.2752 6.98867 14.2957 7.00977C14.3162 7.03088 14.3422 7.04577 14.3708 7.05273L17.8005 7.89258C17.8981 7.91602 17.9938 7.8418 17.9938 7.74219L18.0095 4.20898C18.0075 4.08008 17.8571 4.00781 17.7556 4.08789Z" fill="#141527"/>
</svg>