<svg xmlns="http://www.w3.org/2000/svg" width="20" height="21" viewBox="0 0 20 21" fill="none">
    <path d="M18.0859 3.78857H1.83594C1.49023 3.78857 1.21094 4.06787 1.21094 4.41357V16.9136C1.21094 17.2593 1.49023 17.5386 1.83594 17.5386H18.0859C18.4316 17.5386 18.7109 17.2593 18.7109 16.9136V4.41357C18.7109 4.06787 18.4316 3.78857 18.0859 3.78857ZM17.3047 16.1323H2.61719V5.19482H17.3047V16.1323ZM4.43555 14.5249C4.49609 14.5854 4.5957 14.5854 4.65625 14.5249L8.02539 11.1558L10.2598 13.3921C10.3203 13.4526 10.4199 13.4526 10.4805 13.3921L16.2812 7.5874C16.3418 7.52686 16.3418 7.42725 16.2812 7.3667L15.5625 6.64795C15.5331 6.61887 15.4935 6.60256 15.4521 6.60256C15.4108 6.60256 15.3712 6.61887 15.3418 6.64795L10.3711 11.6206L8.13672 9.38428C8.10735 9.3552 8.0677 9.33889 8.02637 9.33889C7.98504 9.33889 7.94538 9.3552 7.91602 9.38428L3.71875 13.5835C3.68967 13.6129 3.67336 13.6525 3.67336 13.6938C3.67336 13.7352 3.68967 13.7748 3.71875 13.8042L4.43555 14.5249Z" fill="current"/>
</svg>