<svg xmlns="http://www.w3.org/2000/svg" width="24" height="24" viewBox="0 0 24 24" fill="none">
    <path d="M5.41406 5.67128H15.4219V3.9369C15.4219 3.77987 15.6023 3.69315 15.7242 3.78925L19.0523 6.41425C19.0748 6.43179 19.0929 6.45419 19.1053 6.47978C19.1178 6.50536 19.1243 6.53344 19.1243 6.5619C19.1243 6.59036 19.1178 6.61844 19.1053 6.64403C19.0929 6.66961 19.0748 6.69202 19.0523 6.70956L15.7242 9.33456C15.6023 9.43065 15.4219 9.34393 15.4219 9.1869V7.45253H5.69531V18.4682H19.8984C20.0016 18.4682 20.0859 18.5525 20.0859 18.6557V20.0619C20.0859 20.165 20.0016 20.2494 19.8984 20.2494H5.41406C4.58672 20.2494 3.91406 19.5767 3.91406 18.7494V7.17128C3.91406 6.34393 4.58672 5.67128 5.41406 5.67128Z" fill="current"/>
</svg>