<svg xmlns="http://www.w3.org/2000/svg" width="20" height="20" viewBox="0 0 20 20" fill="none">
    <path d="M18.0632 12.2195L16.7839 11.1257C16.8445 10.7546 16.8757 10.3757 16.8757 9.99683C16.8757 9.61792 16.8445 9.23901 16.7839 8.86792L18.0632 7.77417C18.1597 7.69157 18.2288 7.58154 18.2612 7.45874C18.2937 7.33593 18.288 7.20616 18.2449 7.08667L18.2273 7.03589C17.8751 6.05156 17.3477 5.13908 16.6707 4.34253L16.6355 4.30151C16.5534 4.20494 16.4439 4.13551 16.3215 4.10239C16.1991 4.06927 16.0696 4.074 15.95 4.11597L14.3621 4.68042C13.7761 4.19995 13.1218 3.82105 12.4148 3.55542L12.1082 1.89526C12.085 1.77035 12.0244 1.65542 11.9344 1.56577C11.8444 1.47611 11.7293 1.41596 11.6043 1.39331L11.5515 1.38354C10.5339 1.19995 9.46363 1.19995 8.44605 1.38354L8.39331 1.39331C8.26831 1.41596 8.15315 1.47611 8.06314 1.56577C7.97314 1.65542 7.91254 1.77035 7.88941 1.89526L7.58081 3.56323C6.87942 3.82891 6.22626 4.20762 5.64722 4.68433L4.04761 4.11597C3.92801 4.07367 3.79837 4.06876 3.67592 4.1019C3.55347 4.13505 3.444 4.20467 3.36206 4.30151L3.32691 4.34253C2.65063 5.13965 2.12335 6.05198 1.77027 7.03589L1.75269 7.08667C1.6648 7.33081 1.73706 7.60425 1.93433 7.77417L3.22925 8.87964C3.16871 9.24683 3.13941 9.62183 3.13941 9.99487C3.13941 10.3699 3.16871 10.7449 3.22925 11.1101L1.93433 12.2156C1.83784 12.2982 1.76878 12.4082 1.73633 12.531C1.70388 12.6538 1.70959 12.7836 1.75269 12.9031L1.77027 12.9539C2.12378 13.9382 2.64722 14.8464 3.32691 15.6472L3.36206 15.6882C3.4442 15.7848 3.55367 15.8542 3.67605 15.8874C3.79843 15.9205 3.92798 15.9157 4.04761 15.8738L5.64722 15.3054C6.22925 15.7839 6.87964 16.1628 7.58081 16.4265L7.88941 18.0945C7.91254 18.2194 7.97314 18.3343 8.06314 18.424C8.15315 18.5136 8.26831 18.5738 8.39331 18.5964L8.44605 18.6062C9.47298 18.7908 10.5246 18.7908 11.5515 18.6062L11.6043 18.5964C11.7293 18.5738 11.8444 18.5136 11.9344 18.424C12.0244 18.3343 12.085 18.2194 12.1082 18.0945L12.4148 16.4343C13.1215 16.1694 13.7795 15.7893 14.3621 15.3093L15.95 15.8738C16.0696 15.9161 16.1992 15.921 16.3216 15.8878C16.4441 15.8547 16.5536 15.7851 16.6355 15.6882L16.6707 15.6472C17.3503 14.8445 17.8738 13.9382 18.2273 12.9539L18.2449 12.9031C18.3328 12.6628 18.2605 12.3894 18.0632 12.2195ZM15.3972 9.09839C15.446 9.39331 15.4714 9.69604 15.4714 9.99878C15.4714 10.3015 15.446 10.6042 15.3972 10.8992L15.2683 11.6824L16.7273 12.9304C16.5061 13.44 16.2269 13.9223 15.8953 14.3679L14.0828 13.7253L13.4695 14.2292C13.0027 14.6121 12.4832 14.9128 11.9207 15.1238L11.1765 15.4031L10.8269 17.2976C10.2753 17.3601 9.71837 17.3601 9.16675 17.2976L8.81714 15.3992L8.07886 15.116C7.52222 14.905 7.00464 14.6042 6.54175 14.2234L5.92847 13.7175L4.10425 14.366C3.77222 13.9187 3.49488 13.4363 3.27222 12.9285L4.74683 11.6687L4.61988 10.8875C4.573 10.5964 4.54761 10.2957 4.54761 9.99878C4.54761 9.69995 4.57105 9.40112 4.61988 9.11011L4.74683 8.32886L3.27222 7.06909C3.49292 6.55933 3.77222 6.07886 4.10425 5.63159L5.92847 6.28003L6.54175 5.77417C7.00464 5.39331 7.52222 5.09253 8.07886 4.88159L8.8191 4.60229L9.1687 2.70386C9.71753 2.64136 10.2781 2.64136 10.8289 2.70386L11.1785 4.59839L11.9226 4.87769C12.4832 5.08862 13.0046 5.3894 13.4714 5.77222L14.0847 6.27612L15.8972 5.63354C16.2293 6.08081 16.5066 6.56323 16.7292 7.07104L15.2703 8.31909L15.3972 9.09839ZM10.0007 6.36597C8.1023 6.36597 6.56324 7.90503 6.56324 9.80347C6.56324 11.7019 8.1023 13.241 10.0007 13.241C11.8992 13.241 13.4382 11.7019 13.4382 9.80347C13.4382 7.90503 11.8992 6.36597 10.0007 6.36597ZM11.5476 11.3503C11.3447 11.5538 11.1036 11.7152 10.8381 11.8251C10.5727 11.935 10.2881 11.9914 10.0007 11.991C9.41675 11.991 8.86792 11.7625 8.45386 11.3503C8.25039 11.1475 8.08904 10.9063 7.9791 10.6409C7.86916 10.3754 7.81279 10.0908 7.81324 9.80347C7.81324 9.21948 8.04175 8.67065 8.45386 8.25659C8.86792 7.84253 9.41675 7.61597 10.0007 7.61597C10.5847 7.61597 11.1335 7.84253 11.5476 8.25659C11.7511 8.45948 11.9124 8.70059 12.0224 8.96607C12.1323 9.23154 12.1887 9.51613 12.1882 9.80347C12.1882 10.3875 11.9597 10.9363 11.5476 11.3503Z" fill="#6D6E7A"/>
</svg>