<svg xmlns="http://www.w3.org/2000/svg" width="24" height="25" viewBox="0 0 24 25" fill="none">
    <path d="M19.5 2.08496H6.9375C6.83437 2.08496 6.75 2.16934 6.75 2.27246V3.58496C6.75 3.68809 6.83437 3.77246 6.9375 3.77246H18.5625V19.8975C18.5625 20.0006 18.6469 20.085 18.75 20.085H20.0625C20.1656 20.085 20.25 20.0006 20.25 19.8975V2.83496C20.25 2.42012 19.9148 2.08496 19.5 2.08496ZM16.5 5.08496H4.5C4.08516 5.08496 3.75 5.42012 3.75 5.83496V18.2732C3.75 18.4725 3.82969 18.6623 3.97031 18.8029L8.03203 22.8646C8.08359 22.9162 8.14219 22.9584 8.20547 22.9936V23.0381H8.30391C8.38594 23.0686 8.47266 23.085 8.56172 23.085H16.5C16.9148 23.085 17.25 22.7498 17.25 22.335V5.83496C17.25 5.42012 16.9148 5.08496 16.5 5.08496ZM8.20312 20.6521L6.18516 18.6318H8.20312V20.6521ZM15.5625 21.3975H9.70312V18.0693C9.70312 17.5514 9.28359 17.1318 8.76562 17.1318H5.4375V6.77246H15.5625V21.3975Z" fill="current"/>
</svg>