<svg xmlns="http://www.w3.org/2000/svg" width="14" height="14" viewBox="0 0 14 14" fill="none">
    <path fill-rule="evenodd" clip-rule="evenodd" d="M7 9.33333C8.28867 9.33333 9.33333 8.28867 9.33333 7C9.33333 5.71134 8.28867 4.66667 7 4.66667C5.71134 4.66667 4.66667 5.71134 4.66667 7C4.66667 8.28867 5.71134 9.33333 7 9.33333ZM10.5 7C10.5 8.933 8.933 10.5 7 10.5C5.067 10.5 3.5 8.933 3.5 7C3.5 5.067 5.067 3.5 7 3.5C8.933 3.5 10.5 5.067 10.5 7Z" fill="white"/>
    <path fill-rule="evenodd" clip-rule="evenodd" d="M6.41382 2.33317V1.1665H7.58049V2.33317H6.41382Z" fill="white"/>
    <path fill-rule="evenodd" clip-rule="evenodd" d="M6.41382 12.8313V11.6665H7.58049V12.8313H6.41382Z" fill="white"/>
    <path fill-rule="evenodd" clip-rule="evenodd" d="M3.37738 4.20427L2.50416 3.33106L3.32911 2.5061L4.20233 3.37931L3.37738 4.20427Z" fill="white"/>
    <path fill-rule="evenodd" clip-rule="evenodd" d="M10.669 11.4958L9.79584 10.6226L10.6208 9.7976L11.494 10.6708L10.669 11.4958Z" fill="white"/>
    <path fill-rule="evenodd" clip-rule="evenodd" d="M2.33158 7.58252H1.16492V6.41585H2.33158V7.58252Z" fill="white"/>
    <path fill-rule="evenodd" clip-rule="evenodd" d="M12.8295 7.58252H11.6647V6.41585H12.8295V7.58252Z" fill="white"/>
    <path fill-rule="evenodd" clip-rule="evenodd" d="M4.20032 10.6205L3.32917 11.4917L2.5042 10.6667L3.37536 9.79558L4.20032 10.6205Z" fill="white"/>
    <path fill-rule="evenodd" clip-rule="evenodd" d="M11.4919 3.3291L10.6169 4.2041L9.79199 3.37914L10.667 2.50414L11.4919 3.3291Z" fill="white"/>
</svg>