<svg xmlns="http://www.w3.org/2000/svg" width="24" height="25" viewBox="0 0 24 25" fill="none">
    <path d="M11.8523 16.0771C11.8699 16.0996 11.8923 16.1177 11.9179 16.1301C11.9435 16.1426 11.9715 16.1491 12 16.1491C12.0285 16.1491 12.0565 16.1426 12.0821 16.1301C12.1077 16.1177 12.1301 16.0996 12.1477 16.0771L14.7727 12.7561C14.8687 12.6342 14.782 12.4537 14.625 12.4537H12.8883V4.52246C12.8883 4.41934 12.8039 4.33496 12.7008 4.33496H11.2945C11.1914 4.33496 11.107 4.41934 11.107 4.52246V12.4514H9.375C9.21797 12.4514 9.13125 12.6318 9.22734 12.7537L11.8523 16.0771ZM20.5781 15.2568H19.1719C19.0688 15.2568 18.9844 15.3412 18.9844 15.4443V19.0537H5.01562V15.4443C5.01562 15.3412 4.93125 15.2568 4.82812 15.2568H3.42188C3.31875 15.2568 3.23438 15.3412 3.23438 15.4443V20.085C3.23438 20.4998 3.56953 20.835 3.98438 20.835H20.0156C20.4305 20.835 20.7656 20.4998 20.7656 20.085V15.4443C20.7656 15.3412 20.6812 15.2568 20.5781 15.2568Z" fill='current'/>
</svg>